<?xml version="1.0" standalone="no"?>
<!DOCTYPE svg PUBLIC "-//W3C//DTD SVG 20010904//EN"
 "http://www.w3.org/TR/2001/REC-SVG-20010904/DTD/svg10.dtd">
<svg version="1.0" xmlns="http://www.w3.org/2000/svg"
 width="1280.000000pt" height="1280.000000pt" viewBox="0 0 1280.000000 1280.000000"
 preserveAspectRatio="xMidYMid meet">
<metadata>
Created by potrace 1.14, written by Peter Selinger 2001-2017
</metadata>
<g transform="translate(0.000000,1280.000000) scale(0.100000,-0.100000)"
fill="#000000" stroke="none">
<path d="M3257 12794 c-2 -2 -23 -6 -48 -9 -408 -49 -951 -281 -1462 -623 -99
-67 -239 -171 -304 -225 -73 -61 -253 -252 -322 -341 -264 -342 -409 -656
-486 -1056 -27 -140 -27 -473 0 -610 2 -13 7 -42 10 -65 4 -22 13 -80 21 -130
8 -49 17 -99 18 -110 27 -162 94 -488 127 -620 12 -44 23 -91 26 -105 2 -14
15 -64 29 -111 13 -47 26 -95 29 -105 2 -10 17 -64 34 -119 165 -557 373
-1036 632 -1452 236 -379 605 -806 1054 -1218 128 -118 134 -123 266 -236 126
-108 132 -114 232 -192 51 -40 94 -75 97 -78 3 -3 88 -68 190 -144 204 -152
514 -360 715 -481 161 -96 472 -254 625 -318 63 -27 133 -56 155 -66 78 -34
322 -130 535 -209 201 -74 789 -274 841 -285 13 -3 85 -24 159 -46 370 -112
815 -216 1080 -254 139 -19 190 -25 319 -32 106 -6 117 -9 145 -34 17 -15 121
-105 231 -201 110 -95 239 -208 287 -251 48 -42 99 -88 114 -100 14 -13 39
-34 54 -48 15 -14 64 -59 110 -100 117 -105 184 -166 255 -232 33 -31 72 -67
85 -78 109 -94 605 -581 801 -786 105 -110 287 -318 337 -386 52 -70 106 -168
126 -228 44 -133 41 -228 -14 -385 -23 -66 -48 -145 -57 -175 -27 -98 -1 -182
82 -265 45 -45 56 -53 171 -129 361 -242 686 -194 788 115 40 124 30 294 -24
412 -7 15 -11 29 -9 31 3 3 25 0 49 -5 124 -29 213 -38 345 -35 252 6 378 63
447 204 32 64 33 72 32 177 -2 167 -54 336 -126 408 -94 94 -201 120 -538 132
-198 6 -272 14 -358 36 -78 20 -172 65 -212 102 -14 12 -68 58 -120 102 -52
44 -97 82 -100 85 -3 3 -36 32 -75 65 -38 33 -72 62 -75 65 -3 3 -43 39 -90
79 -106 93 -209 185 -394 355 -49 44 -98 89 -110 99 -12 10 -72 67 -135 125
-63 59 -126 118 -141 132 -173 161 -453 426 -561 530 -26 25 -129 124 -230
222 -403 387 -382 365 -376 390 3 13 16 68 30 123 14 55 31 134 37 175 7 41
14 82 15 90 2 8 6 40 9 70 4 30 8 69 10 85 4 30 12 112 21 210 21 255 22 1020
1 1330 -3 33 -8 116 -12 185 -8 151 -10 184 -18 275 -3 39 -8 104 -12 145 -3
41 -7 91 -9 110 -2 19 -7 69 -10 110 -3 41 -8 86 -10 100 -2 14 -6 48 -9 75
-29 263 -39 331 -72 505 -16 85 -102 337 -154 455 -5 11 -21 49 -36 85 -40 93
-200 406 -274 535 -267 466 -604 966 -1184 1755 -299 407 -517 649 -851 946
-200 177 -542 448 -670 530 -16 10 -55 37 -85 59 -115 85 -552 361 -710 448
-661 365 -772 407 -1112 412 -97 2 -178 1 -181 -1z"/>
</g>
</svg>
